<?xml version="1.0" encoding="UTF-8"?>
<!DOCTYPE svg  PUBLIC '-//W3C//DTD SVG 1.1//EN'  'http://www.w3.org/Graphics/SVG/1.1/DTD/svg11.dtd'>
<svg width="1190.6px" height="841.89px" enable-background="new 0 0 1190.55 841.891" version="1.1" viewBox="0 0 1190.55 841.891" xml:space="preserve" xmlns="http://www.w3.org/2000/svg">
	<circle cx="595.28" cy="376.76" r="296.32" fill="none" stroke="#000" stroke-miterlimit="10" stroke-width=".5"/>
	<circle cx="595.28" cy="376.76" r="172.33" fill="none" stroke="#000" stroke-miterlimit="10" stroke-width=".5"/>
	<path d="m595.28 40.005c-185.98 0-336.76 150.77-336.76 336.75 0 185.99 150.77 336.76 336.76 336.76s336.76-150.77 336.76-336.76c1e-3 -185.98-150.77-336.75-336.76-336.75zm0 654.9c-175.71 0-318.15-142.44-318.15-318.15s142.44-318.15 318.15-318.15 318.15 142.44 318.15 318.15-142.44 318.15-318.15 318.15z"/>
	<rect x="591.05" y="57.648" width="8.314" height="22.857"/>
	<rect x="594.55" y="57.648" width="1.323" height="22.857"/>
		<rect transform="matrix(-.9945 .1046 -.1046 -.9945 1130.4 82.252)" x="562.38" y="59.33" width="1.317" height="22.857"/>
		<rect transform="matrix(-.9785 .2063 -.2063 -.9785 1066.7 40.359)" x="530.59" y="64.378" width="1.32" height="22.854"/>
		<rect transform="matrix(-.9512 .3087 -.3087 -.9512 1001.8 9.8144)" x="499.48" y="72.721" width="1.319" height="22.857"/>
	<rect transform="matrix(-.9139 .4059 -.4059 -.9139 938.52 -7.6156)" x="469.41" y="84.285" width="1.32" height="22.854"/>
	<rect transform="matrix(-.867 .4982 -.4982 -.867 879.06 -13.92)" x="440.73" y="98.908" width="1.32" height="22.855"/>
		<rect transform="matrix(-.8088 .5881 -.5881 -.8088 824.7 -12.391)" x="413.7" y="116.45" width="1.317" height="22.856"/>
		<rect transform="matrix(-.7434 .6689 -.6689 -.7434 777.88 -2.1414)" x="388.69" y="136.72" width="1.317" height="22.854"/>
	<rect transform="matrix(-.669 .7432 -.7432 -.669 738.89 12.844)" x="365.93" y="159.51" width="1.317" height="22.852"/>
		<rect transform="matrix(-.5855 .8106 -.8106 -.5855 707.94 29.978)" x="345.65" y="184.54" width="1.317" height="22.856"/>
	<rect transform="matrix(-.501 .8655 -.8655 -.501 686.48 50.123)" x="328.13" y="211.54" width="1.32" height="22.854"/>
		<rect transform="matrix(-.4046 .9145 -.9145 -.4046 671.42 66.18)" x="313.51" y="240.24" width="1.317" height="22.857"/>
	<rect transform="matrix(-.307 .9517 -.9517 -.307 663.68 80.194)" x="301.98" y="270.31" width="1.317" height="22.854"/>
	<rect transform="matrix(-.2091 .9779 -.9779 -.2091 661.81 90.503)" x="293.65" y="301.44" width="1.317" height="22.854"/>
		<rect transform="matrix(-.1019 .9948 -.9948 -.1019 661.66 92.024)" x="288.63" y="333.25" width="1.317" height="22.855"/>
	<rect x="276.17" y="376.17" width="22.851" height="1.316"/>
	<rect transform="matrix(.1068 .9943 -.9943 .1068 665.04 77.663)" x="288.64" y="397.54" width="1.317" height="22.854"/>
	<polygon points="305.37 437.78 305.65 439.06 283.3 443.82 283.01 442.52"/>
	<polygon points="313.34 467.74 313.75 469 292.02 476.06 291.6 474.81"/>
	<rect transform="matrix(.4097 .9122 -.9122 .4097 643.37 9.6327)" x="313.58" y="490.53" width="1.317" height="22.858"/>
	<polygon points="338.42 524.38 339.08 525.51 319.29 536.94 318.62 535.8"/>
		<rect transform="matrix(.5905 .8071 -.8071 .5905 591.91 -51.178)" x="345.72" y="546.22" width="1.316" height="22.857"/>
	<rect transform="matrix(.67 .7423 -.7423 .67 553.55 -79.942)" x="366.04" y="571.27" width="1.317" height="22.851"/>
	<rect transform="matrix(.7446 .6675 -.6675 .7446 503.61 -105.34)" x="388.81" y="594.05" width="1.317" height="22.85"/>
		<rect transform="matrix(.8099 .5866 -.5866 .8099 445.89 -124.17)" x="413.83" y="614.32" width="1.317" height="22.853"/>
		<rect transform="matrix(.8671 .4982 -.4982 .8671 379.18 -134.43)" x="440.81" y="631.84" width="1.313" height="22.849"/>
	<rect transform="matrix(.9139 .406 -.406 .9139 307.59 -134.24)" x="469.54" y="646.44" width="1.313" height="22.85"/>
		<rect transform="matrix(.9515 .3077 -.3077 .9515 230.29 -121.46)" x="499.61" y="658.01" width="1.314" height="22.85"/>
	<rect transform="matrix(.9782 .2075 -.2075 .9782 152.23 -95.526)" x="530.71" y="666.29" width="1.313" height="22.852"/>
	<rect transform="matrix(.9945 .105 -.105 .9945 74.827 -55.373)" x="562.49" y="671.33" width="1.311" height="22.851"/>
	<rect x="594.69" y="673.01" width="1.316" height="22.851"/>
	<rect transform="matrix(.9945 -.1044 .1044 .9945 -67.829 69.226)" x="626.87" y="671.28" width="1.31" height="22.851"/>
	<rect transform="matrix(.9783 -.2074 .2074 .9783 -126.21 151.47)" x="658.65" y="666.26" width="1.314" height="22.851"/>
		<rect transform="matrix(.9507 -.3102 .3102 .9507 -173.56 247.18)" x="689.76" y="657.89" width="1.313" height="22.855"/>
		<rect transform="matrix(.9132 -.4075 .4075 .9132 -205.55 350.71)" x="719.82" y="646.43" width="1.313" height="22.853"/>
		<rect transform="matrix(.8648 -.5021 .5021 .8648 -221.65 463.14)" x="748.54" y="631.73" width="1.317" height="22.857"/>
		<rect transform="matrix(.8067 -.5909 .5909 .8067 -219.71 579.56)" x="775.51" y="614.24" width="1.312" height="22.858"/>
		<rect transform="matrix(.7415 -.6709 .6709 .7415 -199.07 694.03)" x="800.54" y="593.95" width="1.314" height="22.857"/>
		<rect transform="matrix(.6662 -.7458 .7458 .6662 -159.43 808.95)" x="823.31" y="571.14" width="1.313" height="22.861"/>
		<rect transform="matrix(.5871 -.8095 .8095 .5871 -102.74 913.63)" x="843.6" y="546.1" width="1.317" height="22.856"/>
		<rect transform="matrix(.4982 -.8671 .8671 .4982 -27.585 1013.4)" x="861.14" y="519.13" width="1.313" height="22.856"/>
	<rect transform="matrix(.406 -.9139 .9139 .406 61.96 1099)" x="875.74" y="490.41" width="1.313" height="22.859"/>
		<rect transform="matrix(.3039 -.9527 .9527 .3039 168.62 1174.3)" x="887.26" y="460.33" width="1.311" height="22.858"/>
		<rect transform="matrix(.2051 -.9787 .9787 .2051 281.17 1227.4)" x="895.59" y="429.19" width="1.314" height="22.859"/>
		<rect transform="matrix(.1026 -.9947 .9947 .1026 402.15 1263.4)" x="900.63" y="397.4" width="1.314" height="22.861"/>
	<rect x="891.53" y="376.03" width="22.857" height="1.314"/>
		<rect transform="matrix(-.1073 -.9942 .9942 -.1073 655.49 1277.6)" x="900.64" y="333.1" width="1.31" height="22.861"/>
		<rect transform="matrix(-.2101 -.9777 .9777 -.2101 778.82 1254.7)" x="895.57" y="301.29" width="1.311" height="22.86"/>
		<rect transform="matrix(-.3131 -.9497 .9497 -.3131 898.42 1213)" x="887.22" y="270.17" width="1.31" height="22.863"/>
		<rect transform="matrix(-.4114 -.9115 .9115 -.4114 1007.5 1153.7)" x="875.65" y="240.12" width="1.31" height="22.863"/>
		<rect transform="matrix(-.5038 -.8638 .8638 -.5038 1103.4 1079.5)" x="861.07" y="211.43" width="1.31" height="22.859"/>
		<rect transform="matrix(-.5902 -.8072 .8072 -.5902 1184.3 992.84)" x="843.48" y="184.4" width="1.307" height="22.859"/>
		<rect transform="matrix(-.6736 -.7391 .7391 -.6736 1252.5 894.85)" x="823.22" y="159.4" width="1.311" height="22.861"/>
		<rect transform="matrix(-.7479 -.6638 .6638 -.7479 1302 790.54)" x="800.43" y="136.63" width="1.311" height="22.862"/>
		<rect transform="matrix(-.8117 -.5841 .5841 -.8117 1331.4 684.8)" x="775.44" y="116.36" width="1.304" height="22.864"/>
		<rect transform="matrix(-.8687 -.4954 .4954 -.8687 1345.1 577.13)" x="748.42" y="98.841" width="1.304" height="22.86"/>
	<polygon points="716.31 106.35 715.11 105.83 724.4 84.941 725.61 85.478"/>
	<rect transform="matrix(-.9527 -.3038 .3038 -.9527 1322.4 373.95)" x="689.63" y="72.685" width="1.31" height="22.86"/>
		<rect transform="matrix(-.9794 -.2019 .2019 -.9794 1289.5 283.06)" x="658.53" y="64.343" width="1.306" height="22.863"/>
		<rect transform="matrix(-.9952 -.0981 .0981 -.9952 1244.8 202.7)" x="626.72" y="59.317" width="1.309" height="22.864"/>
		<rect transform="matrix(-.8658 .5003 -.5003 -.8658 878.73 -14.948)" x="437.21" y="98.909" width="8.31" height="22.859"/>
	<rect transform="matrix(-.4996 .8662 -.8662 -.4996 686.19 49.583)" x="324.62" y="211.55" width="8.307" height="22.856"/>
	<rect x="276.17" y="372.67" width="22.857" height="8.311"/>
		<rect transform="matrix(.5002 .8659 -.8659 .5002 623.84 -19.533)" x="324.68" y="519.22" width="8.311" height="22.857"/>
		<rect transform="matrix(.8661 .4998 -.4998 .8661 380.58 -134.54)" x="437.3" y="631.82" width="8.314" height="22.859"/>
	<rect x="591.19" y="673.01" width="8.307" height="22.856"/>
		<rect transform="matrix(.8662 -.4997 .4997 .8662 -221.14 460.43)" x="745.03" y="631.72" width="8.314" height="22.854"/>
		<rect transform="matrix(.5004 -.8658 .8658 .5004 -28.758 1011.2)" x="857.65" y="519.11" width="8.31" height="22.855"/>
	<rect x="891.53" y="372.54" width="22.85" height="8.308"/>
		<rect transform="matrix(-.4996 -.8663 .8663 -.4996 1099.2 1080.6)" x="857.54" y="211.4" width="8.307" height="22.853"/>
		<rect transform="matrix(-.8658 -.5003 .5003 -.8658 1342.4 580.46)" x="744.89" y="98.818" width="8.31" height="22.856"/>
		<polygon points="751.71 283.28 839.62 232.52 841.29 235.4 842.59 234.65 836.12 223.44 834.82 224.19 836.48 227.08 748.57 277.83 746.88 274.91 745.57 275.66 752.05 286.87 753.36 286.12"/>
		<polygon points="842.62 234.69 841.31 235.44 842.98 238.33 755.07 289.08 753.38 286.16 752.07 286.91 758.55 298.13 759.85 297.38 758.21 294.52 846.12 243.77 847.78 246.66 849.09 245.9"/>
		<polygon points="879.01 366.93 879.01 370.26 880.51 370.26 880.51 357.32 879.01 357.32 879.01 360.64 777.49 360.64 777.5 357.27 775.99 357.27 775.99 370.22 777.5 370.22 777.49 366.93"/>
		<polygon points="879.01 379.92 879.01 383.25 880.51 383.25 880.51 370.31 879.01 370.31 879.01 373.64 777.49 373.64 777.49 370.26 775.99 370.26 775.99 383.21 777.49 383.21 777.49 379.92"/>
		<polygon points="879.01 396.25 880.51 396.25 880.51 383.3 879.01 383.3 879.01 386.63 777.49 386.63 777.5 383.25 775.99 383.25 775.99 396.2 777.5 396.2 777.5 392.92 879.01 392.92"/>
		<polygon points="849.19 504.43 847.52 507.31 848.83 508.07 855.3 496.86 853.99 496.1 852.33 498.98 764.42 448.23 766.11 445.3 764.8 444.55 758.33 455.76 759.63 456.52 761.28 453.67"/>
		<polygon points="842.69 515.68 841.03 518.56 842.33 519.32 848.81 508.1 847.5 507.35 845.83 510.24 757.92 459.48 759.62 456.56 758.3 455.81 751.83 467.02 753.13 467.77 754.78 464.93"/>
		<polygon points="836.2 526.93 834.53 529.82 835.83 530.57 842.31 519.36 841 518.6 839.33 521.49 751.43 470.73 753.12 467.81 751.81 467.06 745.34 478.27 746.64 479.02 748.29 476.18"/>
		<polygon points="828.03 541.07 829.34 541.82 835.81 530.61 834.5 529.86 832.84 532.74 744.93 481.99 746.62 479.06 745.31 478.31 738.84 489.52 740.14 490.28 741.79 487.43 829.7 538.18"/>
	<polygon points="742.13 133.92 742.89 132.62 731.68 126.15 730.92 127.45 733.8 129.12 683.05 217.03 680.12 215.34 679.37 216.64 690.59 223.12 691.34 221.81 688.5 220.17 739.25 132.26"/>
	<rect transform="matrix(.3438 .939 -.939 .3438 661.69 8.2797)" x="318.45" y="476.84" width="12.946" height="1.511"/>
		<rect transform="matrix(.7383 .6745 -.6745 .7383 515.57 -123.66)" x="410.63" y="601.78" width="12.995" height="1.511"/>
	<polygon points="554.12 659.65 567.1 661.35 566.9 662.84 553.92 661.13"/>
	<polygon points="706.69 639 718.82 634.12 719.38 635.51 707.23 640.4"/>
		<polygon points="476.03 118.05 475.27 116.75 464.06 123.22 464.81 124.53 467.7 122.86 518.46 210.78 515.53 212.46 516.28 213.77 527.5 207.29 526.75 205.99 523.9 207.63 473.15 119.72"/>
			<polygon points="432.34 141.54 507.26 219.12 513.06 215.78 437.93 138.31"/>
			<path d="m488.93 229.7l-30.695-102.97 0.996-0.58s6.02 19.932 9.471 31.55l21.13 71.477-0.902 0.527z"/>
				<rect transform="matrix(-.8661 .4999 -.4999 -.8661 883.7 43.89)" x="429.5" y="139.56" width="12.95" height="1.508"/>
				<rect transform="matrix(-.8661 .4999 -.4999 -.8661 1027.2 182.24)" x="482.7" y="227.95" width="12.95" height="1.508"/>
				<rect transform="matrix(-.8662 .4997 -.4997 -.8662 1059.1 150.47)" x="502.93" y="216.28" width="12.95" height="1.505"/>
				<rect transform="matrix(-.8659 .5001 -.5001 -.8659 919.65 7.7704)" x="452.31" y="126.38" width="12.947" height="1.508"/>
		<polygon points="614.94 93.03 614.94 91.521 601.99 91.525 601.99 93.033 605.32 93.033 605.34 194.54 601.96 194.54 601.96 196.05 614.91 196.04 614.91 194.54 611.62 194.54 611.6 93.03"/>
		<polygon points="627.91 93.03 627.91 91.521 614.97 91.525 614.96 93.033 618.3 93.033 618.32 194.54 614.94 194.54 614.94 196.05 627.88 196.04 627.88 194.54 624.6 194.54 624.58 93.03"/>
			<polygon points="565.36 91.534 591.48 196.17 598.17 196.17 571.81 91.531"/>
			<path d="m570.3 196.18l24.885-104.53 1.157-3e-3s-4.752 20.271-7.568 32.061l-17.427 72.471-1.047-3e-3z"/>
			<rect x="562.64" y="91.531" width="12.95" height="1.508"/>
			<rect x="564.54" y="194.67" width="12.95" height="1.505"/>
			<rect x="587.91" y="194.67" width="12.945" height="1.504"/>
			<rect x="589" y="91.525" width="12.951" height="1.505"/>
		<polygon points="339.81 248.89 443.48 278.62 446.82 272.83 343.03 243.31"/>
		<path d="m432.9 296.95l-78.067-73.831 0.577-1s15.18 14.251 23.982 22.59l54.034 51.332-0.526 0.909z"/>
			<rect transform="matrix(-.4999 .8661 -.8661 -.4999 726.55 72.533)" x="335.86" y="245.28" width="12.947" height="1.505"/>
		<rect transform="matrix(-.4999 .8661 -.8661 -.4999 905.2 69.266)" x="426.13" y="295.22" width="12.948" height="1.511"/>
			<rect transform="matrix(-.5002 .8659 -.8659 -.5002 905.26 28.917)" x="437.81" y="274.97" width="12.95" height="1.504"/>
			<rect transform="matrix(-.4999 .8661 -.8661 -.4999 726.54 26.868)" x="349.04" y="222.45" width="12.948" height="1.505"/>
		<polygon points="311.42 389.91 309.92 389.91 309.92 402.86 311.42 402.86 311.42 399.53 412.93 399.53 412.93 402.91 414.44 402.91 414.44 389.96 412.93 389.96 412.93 393.24 311.42 393.24"/>
			<polygon points="309.92 387.19 414.56 361.1 414.56 354.41 309.92 380.74"/>
			<path d="m414.56 382.27l-104.52-24.904v-1.156s20.273 4.755 32.061 7.573l72.464 17.44v1.047z"/>
			<rect x="309.92" y="376.96" width="1.504" height="12.947"/>
			<rect x="413.06" y="375.09" width="1.505" height="12.947"/>
			<rect x="413.06" y="351.72" width="1.505" height="12.947"/>
			<rect x="309.92" y="350.61" width="1.504" height="12.947"/>
		<polygon points="354.36 527.07 353.06 527.82 359.53 539.04 360.83 538.28 359.17 535.4 447.07 484.65 448.77 487.57 450.08 486.81 443.6 475.6 442.29 476.35 443.94 479.2 356.03 529.96"/>
		<polygon points="360.86 538.32 359.56 539.08 366.02 550.29 367.33 549.53 365.66 546.65 453.58 495.9 455.26 498.82 456.57 498.07 450.09 486.85 448.79 487.61 450.43 490.46 362.52 541.21"/>
		<polygon points="367.36 549.57 366.05 550.33 372.52 561.54 373.82 560.78 372.16 557.9 460.07 507.15 461.76 510.07 463.06 509.32 456.59 498.1 455.29 498.86 456.93 501.7 369.02 552.46"/>
		<polygon points="351.51 525.15 429.09 450.23 422.09 448.15 348.29 519.57"/>
			<path d="m351.62 525.09l-1.254-2.173 73.054-74.063-98.816 29.441-0.577-1.001s19.929-6.016 31.55-9.47l71.473-21.131 2.038 3.533-56.473 54.486c-8.68 8.377-20.995 20.378-20.995 20.378z"/>
			<rect transform="matrix(.4999 .8661 -.8661 .4999 627.19 -42.611)" x="344.02" y="521.06" width="12.945" height="1.505"/>
			<polygon points="617.98 660.49 617.98 662 630.93 662 630.93 660.49 627.6 660.49 627.6 558.98 630.98 558.98 630.98 557.47 618.03 557.47 618.03 558.98 621.32 558.98 621.32 660.49"/>
			<polygon points="614.9 662 588.8 557.35 583.5 562.37 608.44 662"/>
				<path d="m614.9 661.87l-2.518 3e-3 -27.61-100.3-23.916 100.3-1.157-3e-3s4.759-20.271 7.574-32.064l17.439-72.458h4.079l18.95 76.147c2.921 11.709 7.159 28.375 7.159 28.375z"/>
		<rect x="605.04" y="660.49" width="12.949" height="1.508"/>
		<polygon points="467.36 630.61 466.61 631.91 477.82 638.38 478.57 637.08 475.69 635.41 526.45 547.5 529.37 549.19 530.12 547.88 518.91 541.41 518.16 542.72 521 544.36 470.24 632.27"/>
		<polygon points="478.61 637.1 477.86 638.41 489.07 644.88 489.82 643.57 486.94 641.91 537.7 554 540.62 555.68 541.38 554.38 530.16 547.91 529.4 549.21 532.25 550.85 481.5 638.77"/>
		<polygon points="463.94 630.36 493.66 526.69 486.56 528.39 458.35 627.14"/>
			<path d="m464 630.26l-2.179-1.257 26.236-100.66-70.856 74.903-1.003-0.58s14.255-15.179 22.587-23.979l51.335-54.034 3.533 2.034-21.669 75.427c-3.326 11.593-7.984 28.146-7.984 28.146z"/>
			<rect transform="matrix(.866 .5001 -.5001 .866 375.94 -146.55)" x="454.9" y="627.3" width="12.946" height="1.505"/>
		<polygon points="760.45 610.76 685.53 533.18 683.46 540.17 754.87 613.98"/>
			<path d="m760.4 610.65l-2.178 1.254-74.063-73.054 29.439 98.813-0.996 0.583s-6.02-19.936-9.471-31.55l-21.129-71.476 3.527-2.034 54.488 56.473c8.377 8.677 20.383 20.991 20.383 20.991z"/>
		<rect transform="matrix(.866 -.5 .5 .866 -204.46 460.51)" x="750.62" y="611.04" width="12.945" height="1.505"/>
	<circle cx="595.28" cy="376.76" r="15.991" fill="none" stroke="#000" stroke-miterlimit="10" stroke-width=".3478"/>
	<circle cx="595.28" cy="376.76" r="4.546"/>
		<polygon points="663.33 117.81 589.92 407.82 587.3 407.17 660.72 117.16" stroke="#000" stroke-miterlimit="10" stroke-width=".5"/>
	<g stroke="#000" stroke-miterlimit="10" stroke-width=".5">
			<rect transform="matrix(.2412 -.9705 .9705 .2412 157.55 1021.6)" x="725.58" y="409.29" width="12.948" height="1.508"/>
		<polygon points="731.01 411.16 564.57 370.55 565.22 367.93 731.66 408.54"/>
	</g>
	<path d="m668.23 141.38h0.207s-7.672-17.048-1.758-41.516c-0.029-0.075-0.982 3.345-2.293 8.201 1.27-4.753 2.201-8.27 2.15-8.239-7.27 24.092-22.521 34.92-22.521 34.92l0.076 0.047c-3.102 2.119-5.537 5.264-6.596 9.179-2.381 8.769 2.795 17.816 11.561 20.201 8.771 2.374 17.813-2.809 20.195-11.568 1.057-3.908 0.563-7.833-1.021-11.225zm-10.426-8.928c-0.01-3e-3 0.443-1.687 1.137-4.251-0.4 1.476-0.779 2.918-1.137 4.251z"/>
	<path d="m725.51 420.86v0.207s17.051-7.668 41.52-1.756c0.074-0.024-3.346-0.978-8.201-2.291 4.752 1.272 8.27 2.203 8.234 2.153-24.092-7.273-34.92-22.524-34.92-22.524l-0.047 0.075c-2.119-3.101-5.264-5.536-9.178-6.596-8.771-2.38-17.816 2.793-20.203 11.559-2.375 8.771 2.811 17.813 11.568 20.195 3.911 1.06 7.835 0.561 11.227-1.022zm8.928-10.423c6e-3 -9e-3 1.689 0.445 4.252 1.139-1.477-0.406-2.92-0.779-4.252-1.139z"/>
</svg>
